<svg version="1.1" xmlns="http://www.w3.org/2000/svg" xmlns:xlink="http://www.w3.org/1999/xlink" width="96.000000pt" height="96.000000pt" viewBox="0,0,256,256"><g fill="#ffffff" fill-rule="nonzero" stroke="none" stroke-width="1" stroke-linecap="butt" stroke-linejoin="miter" stroke-miterlimit="10" stroke-dasharray="" stroke-dashoffset="0" font-family="none" font-weight="none" font-size="none" text-anchor="none" style="mix-blend-mode: normal"><g transform="scale(2.66667,2.66667)"><g transform="translate(0,96) scale(0.1,-0.1)"><path d="M270,735v-105h-46c-37,0 -51,-5 -75,-29l-29,-29v-166v-166h75h75v-60v-60h210h210v60v60h75h75v166v166l-29,29c-24,24 -38,29 -75,29h-46v105v105h-210h-210zM630,705v-75h-150h-150v75v75h150h150zM778,433l3,-133h-46h-45v60v60h-210h-210v-60v-60h-45h-45v128c0,71 3,132 7,135c4,4 137,6 297,5l291,-3zM630,270v-90h-150h-150v90v90h150h150z"></path><path d="M214,526c-10,-26 4,-48 28,-44c33,4 33,52 0,56c-13,2 -25,-3 -28,-12z"></path></g></g></g></svg>