<svg version="1.1" xmlns="http://www.w3.org/2000/svg" xmlns:xlink="http://www.w3.org/1999/xlink" width="24" height="24" viewBox="0,0,256,256"><g fill="#ffffff" fill-rule="nonzero" stroke="none" stroke-width="1" stroke-linecap="butt" stroke-linejoin="miter" stroke-miterlimit="10" stroke-dasharray="" stroke-dashoffset="0" font-family="none" font-weight="none" font-size="none" text-anchor="none" style="mix-blend-mode: normal"><g transform="scale(10.66667,10.66667)"><path d="M19,14.5v-9c0,-0.82843 -0.67157,-1.5 -1.5,-1.5h-11c-0.82843,0 -1.5,0.67157 -1.5,1.5v13c0,0.82843 0.67157,1.5 1.5,1.5h7c0.82843,0 1.5,-0.67157 1.5,-1.5c0,-1.38071 1.11929,-2.5 2.5,-2.5c0.82843,0 1.5,-0.67157 1.5,-1.5zM18.50144,16.79135c-0.30661,0.1342 -0.64533,0.20865 -1.00144,0.20865c-0.82843,0 -1.5,0.67157 -1.5,1.5c0,0.35611 -0.07446,0.69483 -0.20865,1.00144c1.19602,-0.54884 2.16125,-1.51407 2.71009,-2.71009zM4,5.5c0,-1.38071 1.11929,-2.5 2.5,-2.5h11c1.38071,0 2.5,1.11929 2.5,2.5v9c0,3.58985 -2.91015,6.5 -6.5,6.5h-7c-1.38071,0 -2.5,-1.11929 -2.5,-2.5zM8.5,9c-0.27614,0 -0.5,-0.22386 -0.5,-0.5c0,-0.27614 0.22386,-0.5 0.5,-0.5h7c0.27614,0 0.5,0.22386 0.5,0.5c0,0.27614 -0.22386,0.5 -0.5,0.5zM8.5,12c-0.27614,0 -0.5,-0.22386 -0.5,-0.5c0,-0.27614 0.22386,-0.5 0.5,-0.5h7c0.27614,0 0.5,0.22386 0.5,0.5c0,0.27614 -0.22386,0.5 -0.5,0.5zM8.5,15c-0.27614,0 -0.5,-0.22386 -0.5,-0.5c0,-0.27614 0.22386,-0.5 0.5,-0.5h5c0.27614,0 0.5,0.22386 0.5,0.5c0,0.27614 -0.22386,0.5 -0.5,0.5z"></path></g></g></svg>